<?xml version="1.0" encoding="UTF-8" standalone="no"?> <svg id="Layer_1" data-name="Layer 1" xmlns="http://www.w3.org/2000/svg" viewBox="0 0 128 128"><defs><style>.cls-1{fill:#f8f8f2;}</style></defs><title>v</title><path class="cls-1" d="M117.73973,39.09312A58.32523,58.32523,0,0,0,5.67478,61.79741V97.32569h.01544a7.24449,7.24449,0,0,0,3.403,6.02223l6.6318,4.146h9.7693a3.13718,3.13718,0,0,0,3.13754-3.13754V72.26756A3.13718,3.13718,0,0,0,25.4943,69.13H17.89345v-7.3326a46.10655,46.10655,0,0,1,92.21309,0V69.13H102.5057a3.13718,3.13718,0,0,0-3.13754,3.13754v32.08877a3.13718,3.13718,0,0,0,3.13754,3.13754h1.97262a20.15819,20.15819,0,0,1-15.69016,7.50228H74.506a7.33063,7.33063,0,0,0-6.99044-5.12621H60.48439a7.32822,7.32822,0,0,0-7.32823,7.32823v0a7.32822,7.32822,0,0,0,7.32823,7.32823h7.03122a7.33063,7.33063,0,0,0,6.99051-5.12648h14.282a24.60318,24.60318,0,0,0,21.06047-11.90608H112.275l6.6318-4.146a7.24436,7.24436,0,0,0,3.40295-6.02223h.01547V61.79741A57.98571,57.98571,0,0,0,117.73973,39.09312Z"/></svg>